<mxfile host="app.diagrams.net" agent="Mozilla/5.0 (Windows NT 10.0; Win64; x64) AppleWebKit/537.36 (KHTML, like Gecko) Chrome/131.0.0.0 Safari/537.36" version="24.8.6">
  <diagram name="Trang-1" id="W-k-KWMwK2z_jA4_6d0b">
    <mxGraphModel dx="1050" dy="557" grid="1" gridSize="10" guides="1" tooltips="1" connect="1" arrows="1" fold="1" page="1" pageScale="1" pageWidth="827" pageHeight="1169" math="0" shadow="0">
      <root>
        <mxCell id="0" />
        <mxCell id="1" parent="0" />
        <mxCell id="7z3LBbnC9ESfltprFaI6-1" value="" style="edgeStyle=orthogonalEdgeStyle;rounded=0;orthogonalLoop=1;jettySize=auto;html=1;" edge="1" parent="1" source="7z3LBbnC9ESfltprFaI6-2">
          <mxGeometry relative="1" as="geometry">
            <mxPoint x="400" y="420" as="targetPoint" />
          </mxGeometry>
        </mxCell>
        <mxCell id="7z3LBbnC9ESfltprFaI6-2" value="Start" style="strokeWidth=2;html=1;shape=mxgraph.flowchart.start_2;whiteSpace=wrap;" vertex="1" parent="1">
          <mxGeometry x="350" y="220" width="100" height="100" as="geometry" />
        </mxCell>
        <mxCell id="7z3LBbnC9ESfltprFaI6-3" value="" style="edgeStyle=orthogonalEdgeStyle;rounded=0;orthogonalLoop=1;jettySize=auto;html=1;" edge="1" parent="1" source="7z3LBbnC9ESfltprFaI6-4">
          <mxGeometry relative="1" as="geometry">
            <mxPoint x="400" y="560" as="targetPoint" />
          </mxGeometry>
        </mxCell>
        <mxCell id="7z3LBbnC9ESfltprFaI6-4" value="Nhập số nguyên n" style="shape=parallelogram;html=1;strokeWidth=2;perimeter=parallelogramPerimeter;whiteSpace=wrap;rounded=1;arcSize=12;size=0.23;" vertex="1" parent="1">
          <mxGeometry x="330" y="420" width="140" height="60" as="geometry" />
        </mxCell>
        <mxCell id="7z3LBbnC9ESfltprFaI6-5" value="" style="edgeStyle=orthogonalEdgeStyle;rounded=0;orthogonalLoop=1;jettySize=auto;html=1;" edge="1" parent="1" source="7z3LBbnC9ESfltprFaI6-7">
          <mxGeometry relative="1" as="geometry">
            <mxPoint x="260" y="610" as="targetPoint" />
          </mxGeometry>
        </mxCell>
        <mxCell id="7z3LBbnC9ESfltprFaI6-6" value="" style="edgeStyle=orthogonalEdgeStyle;rounded=0;orthogonalLoop=1;jettySize=auto;html=1;" edge="1" parent="1" source="7z3LBbnC9ESfltprFaI6-7" target="7z3LBbnC9ESfltprFaI6-12">
          <mxGeometry relative="1" as="geometry">
            <mxPoint x="540" y="610" as="targetPoint" />
          </mxGeometry>
        </mxCell>
        <mxCell id="7z3LBbnC9ESfltprFaI6-7" value="n%2==0 ?" style="strokeWidth=2;html=1;shape=mxgraph.flowchart.decision;whiteSpace=wrap;" vertex="1" parent="1">
          <mxGeometry x="350" y="560" width="100" height="100" as="geometry" />
        </mxCell>
        <mxCell id="7z3LBbnC9ESfltprFaI6-8" value="End" style="strokeWidth=2;html=1;shape=mxgraph.flowchart.start_2;whiteSpace=wrap;" vertex="1" parent="1">
          <mxGeometry x="350" y="750" width="100" height="100" as="geometry" />
        </mxCell>
        <mxCell id="7z3LBbnC9ESfltprFaI6-9" value="" style="edgeStyle=orthogonalEdgeStyle;rounded=0;orthogonalLoop=1;jettySize=auto;html=1;exitX=0.5;exitY=0;exitDx=0;exitDy=0;" edge="1" parent="1" source="7z3LBbnC9ESfltprFaI6-10" target="7z3LBbnC9ESfltprFaI6-8">
          <mxGeometry relative="1" as="geometry">
            <mxPoint x="160" y="560" as="sourcePoint" />
            <mxPoint x="360" y="775" as="targetPoint" />
            <Array as="points">
              <mxPoint x="200" y="800" />
            </Array>
          </mxGeometry>
        </mxCell>
        <mxCell id="7z3LBbnC9ESfltprFaI6-10" value="Yes: in: &quot;n là số chẵn&quot;" style="rounded=0;whiteSpace=wrap;html=1;" vertex="1" parent="1">
          <mxGeometry x="140" y="585" width="120" height="60" as="geometry" />
        </mxCell>
        <mxCell id="7z3LBbnC9ESfltprFaI6-11" value="" style="edgeStyle=orthogonalEdgeStyle;rounded=0;orthogonalLoop=1;jettySize=auto;html=1;exitX=0.5;exitY=1;exitDx=0;exitDy=0;exitPerimeter=0;entryX=1;entryY=0.5;entryDx=0;entryDy=0;entryPerimeter=0;" edge="1" parent="1" source="7z3LBbnC9ESfltprFaI6-12" target="7z3LBbnC9ESfltprFaI6-8">
          <mxGeometry relative="1" as="geometry">
            <mxPoint x="580" y="650" as="sourcePoint" />
            <mxPoint x="470" y="800" as="targetPoint" />
            <Array as="points">
              <mxPoint x="580" y="800" />
            </Array>
          </mxGeometry>
        </mxCell>
        <mxCell id="7z3LBbnC9ESfltprFaI6-12" value="No: in: &quot;n là số lẻ&quot;" style="rounded=0;whiteSpace=wrap;html=1;" vertex="1" parent="1">
          <mxGeometry x="520" y="580" width="120" height="60" as="geometry" />
        </mxCell>
      </root>
    </mxGraphModel>
  </diagram>
</mxfile>
